<svg width="140" height="43" viewBox="0 0 140 43" fill="none" xmlns="http://www.w3.org/2000/svg">
<path fill-rule="evenodd" clip-rule="evenodd" d="M86.4269 37.2638C80.0757 40.6552 70.87 42.4646 62.944 42.4646C51.8305 42.4646 41.8255 39.4868 34.2563 34.5343C33.6617 34.1447 34.1945 33.614 34.9081 33.9173C43.0767 37.3604 53.1769 39.4317 63.6101 39.4317C70.6464 39.4317 78.3868 38.3771 85.504 36.1886C86.5791 35.8577 87.4783 36.6986 86.4269 37.2638Z" fill="#FF9900"/>
<path fill-rule="evenodd" clip-rule="evenodd" d="M89.0674 35.0754C88.2586 34.324 83.7008 34.7203 81.6551 34.8961C81.0319 34.9513 80.9368 34.5583 81.4981 34.2758C85.1281 32.425 91.0845 32.9592 91.779 33.5796C92.4736 34.2034 91.5983 38.5287 88.1871 40.5931C87.6638 40.9102 87.1642 40.7413 87.3974 40.3208C88.1634 38.9354 89.8808 35.8301 89.0674 35.0754Z" fill="#FF9900"/>
</svg>
